<?xml version="1.0" encoding="UTF-8"?>
<!DOCTYPE svg PUBLIC "-//W3C//DTD SVG 1.1//EN" "http://www.w3.org/Graphics/SVG/1.1/DTD/svg11.dtd">
<svg version="1.2" width="20mm" height="20mm" viewBox="5255 2326 10002 10002" preserveAspectRatio="xMidYMid" fill-rule="evenodd" stroke-width="28.222" stroke-linejoin="round" xmlns="http://www.w3.org/2000/svg" xmlns:ooo="http://xml.openoffice.org/svg/export" xmlns:xlink="http://www.w3.org/1999/xlink" xmlns:presentation="http://sun.com/xmlns/staroffice/presentation" xmlns:smil="http://www.w3.org/2001/SMIL20/" xmlns:anim="urn:oasis:names:tc:opendocument:xmlns:animation:1.0" xmlns:svg="urn:oasis:names:tc:opendocument:xmlns:svg-compatible:1.0" xml:space="preserve">
 <defs class="EmbeddedBulletChars">
  <g id="bullet-char-template-57356" transform="scale(0.00048828125,-0.00048828125)">
   <path d="M 580,1141 L 1163,571 580,0 -4,571 580,1141 Z"/>
  </g>
  <g id="bullet-char-template-57354" transform="scale(0.00048828125,-0.00048828125)">
   <path d="M 8,1128 L 1137,1128 1137,0 8,0 8,1128 Z"/>
  </g>
  <g id="bullet-char-template-10146" transform="scale(0.00048828125,-0.00048828125)">
   <path d="M 174,0 L 602,739 174,1481 1456,739 174,0 Z M 1358,739 L 309,1346 659,739 1358,739 Z"/>
  </g>
  <g id="bullet-char-template-10132" transform="scale(0.00048828125,-0.00048828125)">
   <path d="M 2015,739 L 1276,0 717,0 1260,543 174,543 174,936 1260,936 717,1481 1274,1481 2015,739 Z"/>
  </g>
  <g id="bullet-char-template-10007" transform="scale(0.00048828125,-0.00048828125)">
   <path d="M 0,-2 C -7,14 -16,27 -25,37 L 356,567 C 262,823 215,952 215,954 215,979 228,992 255,992 264,992 276,990 289,987 310,991 331,999 354,1012 L 381,999 492,748 772,1049 836,1024 860,1049 C 881,1039 901,1025 922,1006 886,937 835,863 770,784 769,783 710,716 594,584 L 774,223 C 774,196 753,168 711,139 L 727,119 C 717,90 699,76 672,76 641,76 570,178 457,381 L 164,-76 C 142,-110 111,-127 72,-127 30,-127 9,-110 8,-76 1,-67 -2,-52 -2,-32 -2,-23 -1,-13 0,-2 Z"/>
  </g>
  <g id="bullet-char-template-10004" transform="scale(0.00048828125,-0.00048828125)">
   <path d="M 285,-33 C 182,-33 111,30 74,156 52,228 41,333 41,471 41,549 55,616 82,672 116,743 169,778 240,778 293,778 328,747 346,684 L 369,508 C 377,444 397,411 428,410 L 1163,1116 C 1174,1127 1196,1133 1229,1133 1271,1133 1292,1118 1292,1087 L 1292,965 C 1292,929 1282,901 1262,881 L 442,47 C 390,-6 338,-33 285,-33 Z"/>
  </g>
  <g id="bullet-char-template-9679" transform="scale(0.00048828125,-0.00048828125)">
   <path d="M 813,0 C 632,0 489,54 383,161 276,268 223,411 223,592 223,773 276,916 383,1023 489,1130 632,1184 813,1184 992,1184 1136,1130 1245,1023 1353,916 1407,772 1407,592 1407,412 1353,268 1245,161 1136,54 992,0 813,0 Z"/>
  </g>
  <g id="bullet-char-template-8226" transform="scale(0.00048828125,-0.00048828125)">
   <path d="M 346,457 C 273,457 209,483 155,535 101,586 74,649 74,723 74,796 101,859 155,911 209,963 273,989 346,989 419,989 480,963 531,910 582,859 608,796 608,723 608,648 583,586 532,535 482,483 420,457 346,457 Z"/>
  </g>
  <g id="bullet-char-template-8211" transform="scale(0.00048828125,-0.00048828125)">
   <path d="M -4,459 L 1135,459 1135,606 -4,606 -4,459 Z"/>
  </g>
  <g id="bullet-char-template-61548" transform="scale(0.00048828125,-0.00048828125)">
   <path d="M 173,740 C 173,903 231,1043 346,1159 462,1274 601,1332 765,1332 928,1332 1067,1274 1183,1159 1299,1043 1357,903 1357,740 1357,577 1299,437 1183,322 1067,206 928,148 765,148 601,148 462,206 346,322 231,437 173,577 173,740 Z"/>
  </g>
 </defs>
 <g class="Page">
  <g class="com.sun.star.drawing.CustomShape">
   <g id="id3">
    <rect class="BoundingBox" stroke="none" fill="none" x="5255" y="2326" width="10002" height="10002"/>
    <path fill="rgb(11,85,96)" stroke="none" d="M 15256,7327 C 15256,8204 15025,9067 14586,9827 14147,10587 13516,11218 12756,11657 11996,12096 11133,12327 10256,12327 9378,12327 8515,12096 7755,11657 6995,11218 6364,10587 5925,9827 5486,9067 5255,8204 5255,7327 5255,6449 5486,5586 5925,4826 6364,4066 6995,3435 7755,2996 8515,2557 9378,2326 10255,2326 11133,2326 11996,2557 12756,2996 13516,3435 14147,4066 14586,4826 15025,5586 15256,6449 15256,7326 L 15256,7327 Z"/>
   </g>
  </g>
  <g class="Graphic">
   <g id="id4">
    <rect class="BoundingBox" stroke="none" fill="none" x="7340" y="3296" width="5830" height="5504"/>
    <defs>
     <clipPath id="clip_path_1" clipPathUnits="userSpaceOnUse">
      <path d="M 7340,3296 L 13169,3296 13169,8799 7340,8799 7340,3296 Z"/>
     </clipPath>
    </defs>
    <g clip-path="url(#clip_path_1)">
     <path fill="rgb(226,67,41)" stroke="none" d="M 10256,8800 L 11329,5420 9184,5420 10256,8800 10256,8800 Z"/>
     <path fill="rgb(252,109,38)" stroke="none" d="M 10256,8800 L 9184,5420 7681,5420 10256,8800 10256,8800 Z"/>
     <path fill="rgb(252,163,38)" stroke="none" d="M 7355,6447 L 7355,6447 C 7347,6470 7344,6494 7344,6517 7344,6557 7354,6597 7373,6631 7389,6659 7410,6683 7435,6701 L 10256,8800 7681,5420 7355,6447 Z"/>
     <path fill="rgb(226,67,41)" stroke="none" d="M 7681,5420 L 9184,5420 8538,3384 C 8504,3280 8360,3280 8327,3384 L 7681,5420 7681,5420 Z"/>
     <path fill="rgb(252,109,38)" stroke="none" d="M 11329,5420 L 12832,5420 10256,8800 11329,5420 Z"/>
     <path fill="rgb(252,163,38)" stroke="none" d="M 12832,5420 L 13158,6447 13158,6447 C 13165,6470 13169,6494 13169,6517 13169,6557 13158,6597 13139,6631 13123,6659 13102,6683 13077,6701 L 10256,8800 12832,5420 12832,5420 Z"/>
     <path fill="rgb(226,67,41)" stroke="none" d="M 12832,5420 L 11329,5420 11975,3384 C 12008,3280 12153,3280 12186,3384 L 12832,5420 12832,5420 Z"/>
    </g>
   </g>
  </g>
  <g class="Group">
   <g class="com.sun.star.drawing.PolyPolygonShape">
    <g id="id5">
     <rect class="BoundingBox" stroke="none" fill="none" x="6569" y="8625" width="7327" height="2438"/>
    </g>
   </g>
   <g class="com.sun.star.drawing.PolyPolygonShape">
    <g id="id6">
     <rect class="BoundingBox" stroke="none" fill="none" x="7306" y="9219" width="899" height="1317"/>
     <path fill="rgb(255,255,255)" stroke="none" d="M 7974,10535 L 7749,10035 7510,10035 7510,10535 7306,10535 7306,9219 7792,9219 7814,9220 7836,9221 7857,9223 7877,9226 7897,9230 7915,9235 7934,9240 7951,9247 7968,9254 7984,9262 7999,9271 8013,9280 8027,9290 8040,9301 8053,9313 8065,9325 8076,9338 8086,9352 8095,9366 8104,9382 8112,9397 8120,9414 8126,9431 8132,9449 8137,9467 8142,9486 8146,9505 8149,9525 8151,9546 8153,9567 8154,9589 8155,9611 8154,9648 8152,9665 8151,9682 8148,9699 8146,9715 8142,9731 8139,9746 8134,9761 8130,9776 8125,9790 8119,9804 8114,9818 8107,9830 8101,9843 8094,9855 8087,9867 8079,9878 8071,9889 8063,9899 8054,9909 8045,9918 8036,9927 8026,9935 8016,9943 8006,9950 7995,9957 7985,9963 7974,9969 7963,9974 7951,9978 7940,9982 8203,10535 7974,10535 Z M 7950,9623 L 7949,9599 7947,9578 7944,9557 7941,9548 7938,9539 7935,9530 7932,9522 7928,9514 7924,9506 7919,9499 7914,9492 7909,9486 7903,9480 7897,9474 7891,9469 7884,9464 7878,9459 7870,9455 7863,9451 7847,9445 7830,9440 7811,9436 7792,9434 7771,9433 7510,9433 7510,9822 7776,9822 7787,9821 7798,9821 7808,9820 7818,9818 7828,9816 7837,9813 7846,9810 7854,9807 7862,9803 7870,9799 7877,9795 7884,9790 7891,9784 7897,9779 7903,9772 7908,9766 7913,9759 7918,9752 7922,9745 7926,9737 7930,9729 7934,9721 7937,9712 7940,9703 7942,9694 7944,9684 7946,9675 7947,9665 7949,9655 7949,9644 7950,9634 7950,9623 Z"/>
    </g>
   </g>
   <g class="com.sun.star.drawing.PolyPolygonShape">
    <g id="id7">
     <rect class="BoundingBox" stroke="none" fill="none" x="8316" y="9219" width="851" height="1336"/>
     <path fill="rgb(255,255,255)" stroke="none" d="M 8730,10553 L 8707,10553 8685,10552 8664,10549 8643,10546 8622,10542 8602,10537 8582,10531 8563,10524 8545,10516 8527,10507 8509,10497 8493,10486 8477,10475 8461,10462 8447,10448 8433,10433 8419,10417 8407,10399 8395,10381 8384,10362 8374,10341 8364,10320 8355,10297 8347,10273 8340,10249 8334,10223 8329,10195 8324,10167 8321,10137 8319,10107 8317,10075 8317,10042 8317,9219 8520,9219 8520,10020 8521,10060 8524,10098 8526,10115 8529,10132 8532,10148 8535,10164 8539,10178 8544,10192 8549,10206 8554,10219 8559,10231 8566,10242 8572,10253 8579,10263 8586,10272 8594,10281 8602,10289 8610,10296 8619,10303 8628,10309 8637,10315 8647,10320 8657,10324 8667,10328 8678,10331 8689,10333 8700,10335 8712,10337 8724,10338 8736,10338 8748,10338 8760,10337 8772,10335 8783,10333 8795,10330 8806,10327 8817,10323 8827,10319 8837,10314 8847,10308 8857,10301 8866,10294 8875,10287 8883,10278 8891,10269 8899,10259 8906,10249 8913,10238 8919,10226 8925,10214 8931,10201 8936,10187 8941,10173 8945,10158 8949,10142 8953,10125 8956,10108 8958,10090 8960,10071 8961,10052 8962,10011 8962,9219 9166,9219 9166,10028 9165,10061 9164,10093 9161,10124 9158,10154 9153,10183 9148,10210 9141,10237 9133,10262 9125,10286 9116,10310 9105,10332 9095,10353 9083,10373 9070,10391 9057,10409 9043,10426 9028,10442 9012,10456 8996,10470 8979,10483 8962,10494 8943,10504 8925,10514 8905,10522 8885,10530 8864,10536 8843,10541 8821,10546 8799,10549 8776,10552 8753,10553 8730,10553 Z"/>
    </g>
   </g>
   <g class="com.sun.star.drawing.PolyPolygonShape">
    <g id="id8">
     <rect class="BoundingBox" stroke="none" fill="none" x="9345" y="9219" width="833" height="1317"/>
     <path fill="rgb(255,255,255)" stroke="none" d="M 9937,10535 L 9514,9522 9521,9604 9525,9681 9526,9759 9526,10535 9346,10535 9346,9219 9578,9219 10008,10241 10002,10159 9997,10076 9995,9984 9995,9219 10176,9219 10176,10535 9937,10535 Z"/>
    </g>
   </g>
   <g class="com.sun.star.drawing.PolyPolygonShape">
    <g id="id9">
     <rect class="BoundingBox" stroke="none" fill="none" x="10365" y="9219" width="832" height="1317"/>
     <path fill="rgb(255,255,255)" stroke="none" d="M 10957,10535 L 10533,9522 10540,9604 10544,9681 10546,9759 10546,10535 10365,10535 10365,9219 10597,9219 11027,10241 11022,10159 11017,10076 11015,9984 11015,9219 11196,9219 11196,10535 10957,10535 Z"/>
    </g>
   </g>
   <g class="com.sun.star.drawing.PolyPolygonShape">
    <g id="id10">
     <rect class="BoundingBox" stroke="none" fill="none" x="11384" y="9219" width="795" height="1317"/>
     <path fill="rgb(255,255,255)" stroke="none" d="M 11385,10535 L 11385,9219 12150,9219 12150,9432 11588,9432 11588,9763 12108,9763 12108,9976 11588,9976 11588,10322 12177,10322 12177,10535 11385,10535 Z"/>
    </g>
   </g>
   <g class="com.sun.star.drawing.PolyPolygonShape">
    <g id="id11">
     <rect class="BoundingBox" stroke="none" fill="none" x="12327" y="9219" width="899" height="1317"/>
     <path fill="rgb(255,255,255)" stroke="none" d="M 12995,10535 L 12770,10035 12531,10035 12531,10535 12327,10535 12327,9219 12813,9219 12835,9220 12857,9221 12878,9223 12898,9226 12917,9230 12936,9235 12954,9240 12972,9247 12988,9254 13004,9262 13020,9271 13034,9280 13048,9290 13061,9301 13074,9313 13085,9325 13096,9338 13107,9352 13116,9366 13125,9382 13133,9397 13141,9414 13147,9431 13153,9449 13158,9467 13163,9486 13167,9505 13170,9525 13172,9546 13174,9567 13175,9589 13175,9611 13174,9648 13173,9665 13171,9682 13169,9699 13166,9715 13163,9731 13159,9746 13155,9761 13151,9776 13146,9790 13140,9804 13135,9818 13128,9830 13122,9843 13115,9855 13108,9867 13100,9878 13092,9889 13083,9899 13075,9909 13066,9918 13056,9927 13047,9935 13037,9943 13026,9950 13016,9957 13005,9963 12995,9969 12984,9974 12972,9978 12961,9982 13224,10535 12995,10535 Z M 12971,9623 L 12970,9599 12968,9578 12964,9557 12962,9548 12959,9539 12956,9530 12953,9522 12949,9514 12945,9506 12940,9499 12935,9492 12930,9486 12924,9480 12918,9474 12912,9469 12905,9464 12898,9459 12891,9455 12884,9451 12868,9445 12851,9440 12832,9436 12813,9434 12792,9433 12531,9433 12531,9822 12797,9822 12808,9821 12819,9821 12829,9820 12839,9818 12849,9816 12858,9813 12867,9810 12875,9807 12883,9803 12891,9799 12898,9795 12905,9790 12911,9784 12918,9779 12923,9772 12929,9766 12934,9759 12939,9752 12943,9745 12947,9737 12951,9729 12955,9721 12958,9712 12960,9703 12963,9694 12965,9684 12967,9675 12968,9665 12969,9655 12970,9644 12971,9634 12971,9623 Z"/>
    </g>
   </g>
  </g>
 </g>
</svg>